<svg width="30" height="28" viewBox="0 0 30 28" fill="none" xmlns="http://www.w3.org/2000/svg">
<g clip-path="url(#clip0_30_21)">
<path d="M15 0.787354C7.03125 0.787354 0.46875 6.82485 0.46875 14.3499C0.46875 20.2999 4.64062 25.3749 10.4531 27.2124C11.2031 27.3436 11.4375 26.9061 11.4375 26.5999C11.4375 26.2936 11.4375 25.4186 11.3906 24.2374C7.35937 25.1124 6.51562 22.3999 6.51562 22.3999C5.85937 20.8686 4.875 20.4311 4.875 20.4311C3.5625 19.5561 4.92188 19.5561 4.92188 19.5561C6.375 19.5999 7.17188 20.9561 7.17188 20.9561C8.4375 23.0561 10.5937 22.4436 11.3906 22.0499C11.5312 21.1749 11.9062 20.5624 12.3281 20.2124C9.14062 19.9061 5.71875 18.7249 5.71875 13.5624C5.71875 12.0749 6.32812 10.8936 7.21875 9.97485C7.07812 9.6686 6.5625 8.2686 7.35937 6.38735C7.35937 6.38735 8.625 6.03735 11.3906 7.78735C12.5625 7.4811 13.7812 7.3061 15.0469 7.3061C16.3125 7.3061 17.5781 7.43735 18.7031 7.78735C21.4688 6.0811 22.6875 6.38735 22.6875 6.38735C23.4844 8.22485 23.0156 9.6686 22.8281 9.97485C23.7656 10.8936 24.3281 12.1186 24.3281 13.5624C24.3281 18.7249 20.9062 19.9061 17.7187 20.2124C18.2344 20.6499 18.7031 21.5249 18.7031 22.7499C18.7031 24.5874 18.6562 26.0311 18.6562 26.4686C18.6562 26.8186 18.9375 27.2124 19.6406 27.0811C25.3594 25.2874 29.5312 20.2561 29.5312 14.2624C29.4844 6.82485 22.9688 0.787354 15 0.787354Z" fill="white"/>
</g>
<defs>
<clipPath id="clip0_30_21">
<rect width="30" height="28" fill="white"/>
</clipPath>
</defs>
</svg>
