<svg width="43" height="40" viewBox="0 0 43 40" fill="none" xmlns="http://www.w3.org/2000/svg">
<path d="M21.6225 1.12488C10.504 1.12488 1.34766 9.74988 1.34766 20.4999C1.34766 28.9999 7.1685 36.2499 15.2784 38.8749C16.3249 39.0624 16.6519 38.4374 16.6519 37.9999C16.6519 37.5624 16.6519 36.3124 16.5865 34.6249C10.9619 35.8749 9.78461 31.9999 9.78461 31.9999C8.86897 29.8124 7.49551 29.1874 7.49551 29.1874C5.66424 27.9374 7.56091 27.9374 7.56091 27.9374C9.5884 27.9999 10.7002 29.9374 10.7002 29.9374C12.4661 32.9374 15.4746 32.0624 16.5865 31.4999C16.7827 30.2499 17.3059 29.3749 17.8945 28.8749C13.4472 28.4374 8.67276 26.7499 8.67276 19.3749C8.67276 17.2499 9.52299 15.5624 10.7656 14.2499C10.5694 13.8124 9.85001 11.8124 10.9619 9.12488C10.9619 9.12488 12.7277 8.62488 16.5865 11.1249C18.2215 10.6874 19.922 10.4374 21.6879 10.4374C23.4538 10.4374 25.2196 10.6249 26.7893 11.1249C30.6481 8.68738 32.3485 9.12488 32.3485 9.12488C33.4604 11.7499 32.8063 13.8124 32.5447 14.2499C33.8528 15.5624 34.6376 17.3124 34.6376 19.3749C34.6376 26.7499 29.8632 28.4374 25.4158 28.8749C26.1353 29.4999 26.7893 30.7499 26.7893 32.4999C26.7893 35.1249 26.7239 37.1874 26.7239 37.8124C26.7239 38.3124 27.1163 38.8749 28.0974 38.6874C36.0765 36.1249 41.8973 28.9374 41.8973 20.3749C41.8319 9.74988 32.7409 1.12488 21.6225 1.12488Z" fill="#313131"/>
</svg>
