<svg width="31" height="30" viewBox="0 0 31 30" fill="none" xmlns="http://www.w3.org/2000/svg">
<path d="M28.8031 0H3.17969C1.96875 0 1 0.9375 1 2.10938V26.9531C1 28.0781 1.96875 29.0625 3.17969 29.0625H28.7063C29.9172 29.0625 30.886 28.125 30.886 26.9531V2.0625C30.9828 0.9375 30.0141 0 28.8031 0ZM9.86408 24.7031H5.45627V10.875H9.86408V24.7031ZM7.63596 8.95312C6.18283 8.95312 5.06875 7.82812 5.06875 6.46875C5.06875 5.10938 6.23127 3.98438 7.63596 3.98438C9.04064 3.98438 10.2031 5.10938 10.2031 6.46875C10.2031 7.82812 9.13752 8.95312 7.63596 8.95312ZM26.575 24.7031H22.1672V18C22.1672 16.4062 22.1188 14.2969 19.8422 14.2969C17.5172 14.2969 17.1781 16.0781 17.1781 17.8594V24.7031H12.7703V10.875H17.0813V12.7969H17.1297C17.7594 11.6719 19.1641 10.5469 21.3438 10.5469C25.8485 10.5469 26.6719 13.3594 26.6719 17.2031V24.7031H26.575Z" fill="white"/>
</svg>
