<svg width="42" height="40" viewBox="0 0 42 40" fill="none" xmlns="http://www.w3.org/2000/svg">
<g clip-path="url(#clip0_24_390)">
<path d="M38.2616 0.625H3.66357C2.0285 0.625 0.720451 1.875 0.720451 3.4375V36.5625C0.720451 38.0625 2.0285 39.375 3.66357 39.375H38.1308C39.7659 39.375 41.0739 38.125 41.0739 36.5625V3.375C41.2047 1.875 39.8967 0.625 38.2616 0.625ZM12.6892 33.5625H6.73752V15.125H12.6892V33.5625ZM9.68064 12.5625C7.71856 12.5625 6.21428 11.0625 6.21428 9.25C6.21428 7.4375 7.78397 5.9375 9.68064 5.9375C11.5773 5.9375 13.147 7.4375 13.147 9.25C13.147 11.0625 11.7081 12.5625 9.68064 12.5625ZM35.2531 33.5625H29.3014V24.625C29.3014 22.5 29.236 19.6875 26.1621 19.6875C23.0228 19.6875 22.565 22.0625 22.565 24.4375V33.5625H16.6133V15.125H22.4342V17.6875H22.4996C23.3498 16.1875 25.2465 14.6875 28.1896 14.6875C34.272 14.6875 35.3839 18.4375 35.3839 23.5625V33.5625H35.2531Z" fill="#313131"/>
</g>
<defs>
<clipPath id="clip0_24_390">
<rect width="41.8577" height="40" fill="white"/>
</clipPath>
</defs>
</svg>
